<svg width="30.000000" height="105.000000" viewBox="0 0 30 105" fill="none" xmlns="http://www.w3.org/2000/svg" xmlns:xlink="http://www.w3.org/1999/xlink">
	<desc>
			Created with Pixso.
	</desc>
	<defs/>
	<path id="Vector 7" d="M16.8 37.16L17.2 36.66C17.46 36.33 18.31 35.44 19.75 34C21.19 32.56 22.22 31.07 22.84 29.51C23.46 27.96 24.18 25.75 24.99 22.9C25.8 20.04 26.34 17.72 26.62 15.92C26.91 14.13 27.19 11.64 27.47 8.47C27.75 5.29 27.83 3.35 27.71 2.65C27.59 1.94 27.38 1.51 27.08 1.34C26.78 1.18 25.98 3.39 24.67 7.99C23.36 12.59 21.06 23.49 17.75 40.67C14.45 57.85 11.67 70.71 9.41 79.24C7.15 87.77 5.14 94.51 3.38 99.44C1.62 104.37 0.71 104.58 0.64 100.09C0.58 95.59 1.3 89.08 2.82 80.56C4.35 72.04 6.13 65.82 8.18 61.93C10.23 58.03 12.47 55.19 14.9 53.42C17.34 51.66 18.91 50.73 19.62 50.66C20.32 50.58 21.02 51.09 21.7 52.18C22.38 53.28 22.89 54 23.22 54.34" stroke="#000000" stroke-opacity="1.000000" stroke-width="3.000000" stroke-linecap="round"/>
</svg>
