<svg width="13.000000" height="63.000000" viewBox="0 0 13 63" fill="none" xmlns="http://www.w3.org/2000/svg" xmlns:xlink="http://www.w3.org/1999/xlink">
	<desc>
			Created with Pixso.
	</desc>
	<defs/>
	<path id="Vector 1" d="M0.58 17.16L0.58 16.84C0.58 16.63 0.58 15.95 0.58 14.79C0.58 13.63 0.58 12.27 0.58 10.71C0.58 9.14 0.58 8.21 0.58 7.91C0.58 7.61 0.67 7.2 0.83 6.68C1 6.17 1.26 5.88 1.62 5.81C1.97 5.75 2.32 5.97 2.66 6.48C2.99 7 3.25 7.31 3.43 7.43C3.61 7.54 3.82 7.78 4.05 8.13C4.28 8.48 4.48 8.75 4.65 8.92C4.83 9.09 4.97 9.24 5.09 9.36C5.2 9.47 5.49 9.59 5.95 9.7C6.4 9.82 6.78 9.79 7.07 9.62C7.37 9.45 7.6 9.28 7.77 9.12C7.93 8.96 8.25 8.61 8.71 8.09C9.17 7.56 9.44 7.18 9.5 6.95C9.57 6.72 9.72 6.42 9.95 6.07C10.19 5.71 10.36 5.22 10.47 4.59C10.58 3.97 10.7 3.11 10.81 2.02C10.93 0.93 10.99 1.03 10.99 2.31C10.99 3.6 10.99 5.38 10.99 7.66C10.99 9.94 10.99 11.99 10.99 13.81C10.99 15.62 10.99 17.86 10.99 20.52C10.99 23.18 10.99 25.84 10.99 28.5C10.99 31.16 10.99 33.93 10.99 36.82C10.99 39.71 10.99 41.68 10.99 42.72C10.99 43.76 10.93 44.81 10.81 45.89C10.7 46.97 10.58 48.1 10.47 49.3C10.35 50.49 10.29 51.52 10.29 52.39C10.29 53.25 10.24 54.12 10.12 54.98C10 55.84 9.94 56.79 9.94 57.82C9.93 58.86 9.93 59.79 9.94 60.63" stroke="#000000" stroke-opacity="1.000000" stroke-width="3.000000" stroke-linecap="round"/>
</svg>
