<svg width="31.000000" height="53.000000" viewBox="0 0 31 53" fill="none" xmlns="http://www.w3.org/2000/svg" xmlns:xlink="http://www.w3.org/1999/xlink">
	<desc>
			Created with Pixso.
	</desc>
	<defs/>
	<path id="Vector 5" d="M5.22 14L5.22 13.42C5.22 13.04 5.29 12.39 5.42 11.47C5.55 10.55 6.26 9.25 7.54 7.57C8.83 5.88 10.09 4.53 11.31 3.5C12.54 2.47 13.67 1.76 14.72 1.36C15.76 0.96 16.64 0.71 17.36 0.62C18.08 0.52 18.71 0.75 19.24 1.3C19.78 1.85 20.27 2.67 20.71 3.77C21.15 4.87 21.3 6.42 21.17 8.42C21.04 10.41 20.62 12.04 19.91 13.29C19.21 14.54 18.38 15.84 17.43 17.19C16.48 18.54 14.96 20.21 12.88 22.22C10.8 24.22 9.04 25.73 7.6 26.76C6.15 27.79 5.02 28.61 4.21 29.21C3.39 29.82 2.75 30.15 2.28 30.21C1.81 30.27 1.55 29.9 1.49 29.1C1.43 28.3 1.74 27.18 2.42 25.73C3.1 24.29 4.28 22.87 5.98 21.48C7.69 20.09 9.78 18.87 12.27 17.8C14.76 16.73 16.71 16.06 18.13 15.79C19.55 15.52 20.71 15.57 21.63 15.93C22.54 16.29 23.49 16.88 24.46 17.7C25.43 18.53 26.32 20.13 27.11 22.52C27.9 24.9 28.39 27.38 28.55 29.96C28.72 32.54 28.29 35.29 27.28 38.22C26.26 41.14 25.06 43.42 23.69 45.07C22.31 46.71 21.03 47.88 19.86 48.57C18.68 49.26 17.6 49.8 16.61 50.2C15.62 50.61 14.55 50.82 13.4 50.85C12.24 50.88 11.21 50.32 10.3 49.16C9.39 48 8.72 46.29 8.29 44C7.86 41.72 7.8 40.28 8.1 39.67C8.4 39.06 10.45 39.11 14.25 39.81C18.05 40.51 21.31 41 24.03 41.3" stroke="#000000" stroke-opacity="1.000000" stroke-width="3.000000" stroke-linecap="round"/>
</svg>
