<svg width="62.000000" height="27.000000" viewBox="0 0 62 27" fill="none" xmlns="http://www.w3.org/2000/svg" xmlns:xlink="http://www.w3.org/1999/xlink">
	<desc>
			Created with Pixso.
	</desc>
	<defs/>
	<path id="Vector 6" d="M0.84 24.66L1.09 24.74C1.26 24.8 1.74 24.91 2.54 25.09C3.35 25.27 4.35 24.95 5.57 24.16C6.79 23.36 8.41 22.01 10.44 20.09C12.47 18.18 13.57 16.76 13.75 15.83C13.93 14.9 14.06 14.4 14.12 14.34C14.19 14.29 14.49 14.7 15.01 15.59C15.53 16.49 16.12 17.12 16.79 17.5C17.46 17.88 18.25 17.56 19.16 16.53C20.08 15.5 20.86 14.49 21.52 13.5C22.17 12.52 22.62 12.06 22.87 12.12C23.11 12.19 23.44 12.78 23.83 13.88C24.23 14.98 25.02 14.95 26.2 13.79C27.39 12.63 28.22 11.67 28.72 10.9C29.21 10.13 29.64 10.05 29.99 10.66C30.34 11.27 30.75 11.73 31.21 12.05C31.67 12.36 32.3 12.15 33.09 11.42C33.87 10.68 34.47 9.96 34.87 9.26C35.28 8.56 35.6 8.21 35.85 8.2C36.09 8.2 36.48 8.54 37 9.23C37.52 9.92 38.08 10.2 38.68 10.06C39.28 9.92 39.98 9.37 40.77 8.4C41.57 7.44 42.13 6.79 42.47 6.44C42.81 6.1 43.15 6.08 43.51 6.37C43.87 6.66 44.13 6.92 44.29 7.15C44.46 7.38 44.73 7.53 45.1 7.58C45.47 7.64 46.15 7.19 47.12 6.24C48.1 5.29 48.78 4.56 49.16 4.05C49.55 3.54 49.84 3.36 50.05 3.53C50.26 3.69 50.66 4.08 51.27 4.68C51.88 5.28 52.56 5.2 53.32 4.44C54.08 3.68 54.83 2.81 55.56 1.85C56.3 0.88 56.84 0.45 57.19 0.57C57.55 0.69 57.87 0.97 58.15 1.43C58.44 1.88 58.75 2.24 59.1 2.5C59.45 2.75 59.88 2.69 60.4 2.33" stroke="#000000" stroke-opacity="1.000000" stroke-width="3.000000" stroke-linecap="round"/>
</svg>
